<svg xmlns="http://www.w3.org/2000/svg" viewBox="0 0 800 600" role="img" aria-label="Before: outdated electrical panel with messy wiring (placeholder illustration)">
  <rect width="800" height="600" fill="#8f887b"/>
  <rect width="800" height="600" fill="#9a9284"/>
  <ellipse cx="180" cy="120" rx="120" ry="70" fill="#837b6c" opacity="0.5"/>
  <ellipse cx="660" cy="480" rx="140" ry="80" fill="#837b6c" opacity="0.4"/>
  <!-- old rusty panel -->
  <rect x="260" y="90" width="280" height="380" rx="8" fill="#6e6455"/>
  <rect x="278" y="108" width="244" height="344" rx="6" fill="#5c5344"/>
  <rect x="300" y="140" width="200" height="260" fill="#4a4236"/>
  <!-- crooked breakers -->
  <g fill="#8a8071">
    <rect x="312" y="152" width="80" height="26" transform="rotate(-3 352 165)"/>
    <rect x="408" y="156" width="80" height="26" transform="rotate(2 448 169)"/>
    <rect x="312" y="196" width="80" height="26"/>
    <rect x="408" y="200" width="80" height="26" transform="rotate(-2 448 213)"/>
    <rect x="312" y="242" width="80" height="26" transform="rotate(3 352 255)"/>
    <rect x="312" y="330" width="80" height="26"/>
  </g>
  <!-- missing breaker gaps -->
  <rect x="408" y="244" width="80" height="26" fill="#332d24"/>
  <rect x="408" y="330" width="80" height="26" fill="#332d24"/>
  <!-- rust streaks -->
  <path d="M290 452 q6 -30 2 -60" stroke="#7a4f2a" stroke-width="10" fill="none" opacity="0.7"/>
  <path d="M500 452 q-4 -40 0 -80" stroke="#7a4f2a" stroke-width="8" fill="none" opacity="0.6"/>
  <ellipse cx="330" cy="120" rx="30" ry="12" fill="#7a4f2a" opacity="0.5"/>
  <!-- tangled wires -->
  <path d="M300 470 C260 520 220 500 200 560" stroke="#333" stroke-width="9" fill="none"/>
  <path d="M340 470 C330 540 260 540 250 600" stroke="#833" stroke-width="9" fill="none"/>
  <path d="M420 470 C440 520 400 560 430 600" stroke="#335" stroke-width="9" fill="none"/>
  <path d="M470 470 C520 500 540 560 500 600" stroke="#333" stroke-width="9" fill="none"/>
  <path d="M380 470 C380 520 350 530 360 600" stroke="#553" stroke-width="9" fill="none"/>
  <!-- hanging door -->
  <rect x="540" y="100" width="26" height="360" rx="6" fill="#66573f" transform="rotate(8 553 280)"/>
  <!-- placeholder tag -->
  <rect x="0" y="556" width="800" height="44" fill="#10151C" opacity="0.85"/>
  <text x="20" y="584" font-family="Arial, Helvetica, sans-serif" font-size="20" letter-spacing="2" fill="#E9EDF2">SAMPLE ILLUSTRATION — REPLACE WITH YOUR JOB PHOTO</text>
</svg>
