<svg xmlns="http://www.w3.org/2000/svg" viewBox="0 0 400 500" role="img" aria-label="Field technician in MM Services uniform (placeholder illustration)">
  <defs>
    <linearGradient id="bgA" x1="0" y1="0" x2="0" y2="1">
      <stop offset="0" stop-color="#2b3a4a"/><stop offset="1" stop-color="#1C2733"/>
    </linearGradient>
  </defs>
  <rect width="400" height="500" fill="url(#bgA)"/>
  <path d="M0 500 L400 340 L400 500 z" fill="#F58A1F" opacity="0.12"/>
  <!-- shoulders / navy polo -->
  <path d="M60 500 q0 -130 140 -130 q140 0 140 130 z" fill="#1E4E7A"/>
  <path d="M60 500 q0 -130 140 -130 l0 130 z" fill="#1a4368"/>
  <!-- collar -->
  <path d="M160 378 L200 412 L240 378 L240 400 L200 430 L160 400 z" fill="#10151C"/>
  <!-- head -->
  <circle cx="200" cy="270" r="78" fill="#c98e63"/>
  <path d="M122 270 q0 -78 78 -78 l0 156 q-78 0 -78 -78 z" fill="#bd8258"/>
  <!-- ears -->
  <circle cx="122" cy="276" r="14" fill="#bd8258"/><circle cx="278" cy="276" r="14" fill="#c98e63"/>
  <!-- cap with orange bill -->
  <path d="M120 250 q0 -80 80 -80 q80 0 80 80 z" fill="#10151C"/>
  <path d="M118 250 h164 q14 0 14 12 q0 10 -14 10 h-164 q-14 0 -14 -10 q0 -12 14 -12 z" fill="#F58A1F"/>
  <circle cx="200" cy="210" r="17" fill="#F58A1F"/>
  <path d="M193 210 a7 7 0 1 1 14 0 a7 7 0 1 1 -14 0 M200 199 l3 5 h-6 z M200 221 l3 -5 h-6 z M189 210 l5 -3 v6 z M211 210 l-5 -3 v6 z" fill="#10151C"/>
  <!-- smile -->
  <path d="M176 300 q24 18 48 0" stroke="#8f5b36" stroke-width="7" fill="none" stroke-linecap="round"/>
  <circle cx="172" cy="272" r="7" fill="#2b1f16"/><circle cx="228" cy="272" r="7" fill="#2b1f16"/>
  <!-- chest badge: shield + gear -->
  <g transform="translate(268 430)">
    <path d="M0 -26 h52 v22 q0 22 -26 34 q-26 -12 -26 -34 z" fill="#10151C" stroke="#d7dde4" stroke-width="4"/>
    <circle cx="26" cy="-2" r="12" fill="none" stroke="#F58A1F" stroke-width="5"/>
    <circle cx="26" cy="-2" r="4" fill="#F58A1F"/>
  </g>
  <!-- wrench in pocket -->
  <g transform="translate(96 452) rotate(-24)">
    <rect x="0" y="0" width="70" height="12" rx="6" fill="#c9d2db"/>
    <circle cx="0" cy="6" r="13" fill="#c9d2db"/><circle cx="0" cy="6" r="6" fill="#1E4E7A"/>
  </g>
  <rect x="0" y="464" width="400" height="36" fill="#10151C" opacity="0.85"/>
  <text x="200" y="488" text-anchor="middle" font-family="Arial, Helvetica, sans-serif" font-size="15" letter-spacing="2" fill="#E9EDF2">PLACEHOLDER — ADD YOUR TEAM PHOTO</text>
</svg>
