<svg xmlns="http://www.w3.org/2000/svg" width="600" height="400" viewBox="0 0 600 400">
  <rect width="600" height="400" fill="#F0F9FF"/>
  
  <!-- Service Icons -->
  <!-- Business Formation -->
  <circle cx="150" cy="100" r="40" fill="#DBEAFE"/>
  <rect x="130" y="90" width="40" height="30" rx="5" fill="#3B82F6"/>
  <path d="M130 90 L150 70 L170 90" fill="#1E40AF"/>
  
  <!-- Business Growth -->
  <circle cx="300" cy="100" r="40" fill="#DBEAFE"/>
  <path d="M280 120 L300 80 L320 100 L340 90" stroke="#3B82F6" stroke-width="4" fill="none"/>
  <circle cx="280" cy="120" r="5" fill="#1E40AF"/>
  <circle cx="300" cy="80" r="5" fill="#1E40AF"/>
  <circle cx="320" cy="100" r="5" fill="#1E40AF"/>
  <circle cx="340" cy="90" r="5" fill="#1E40AF"/>
  
  <!-- Legal Services -->
  <circle cx="450" cy="100" r="40" fill="#DBEAFE"/>
  <rect x="430" y="85" width="40" height="50" rx="5" fill="#3B82F6"/>
  <rect x="440" y="70" width="20" height="15" fill="#1E40AF"/>
  <path d="M430 95 L470 95" stroke="white" stroke-width="2"/>
  <path d="M430 105 L470 105" stroke="white" stroke-width="2"/>
  <path d="M430 115 L470 115" stroke="white" stroke-width="2"/>
  
  <!-- Consulting -->
  <circle cx="150" cy="250" r="40" fill="#DBEAFE"/>
  <circle cx="140" cy="240" r="15" fill="#3B82F6"/>
  <circle cx="170" cy="240" r="15" fill="#3B82F6"/>
  <path d="M130 270 C140 290, 170 290, 180 270" stroke="#1E40AF" stroke-width="3" fill="none"/>
  
  <!-- Marketing -->
  <circle cx="300" cy="250" r="40" fill="#DBEAFE"/>
  <path d="M300 220 L280 260 L320 260 Z" fill="#3B82F6"/>
  <path d="M290 230 L310 230 L310 250 L290 250 Z" fill="#1E40AF"/>
  
  <!-- International Business -->
  <circle cx="450" cy="250" r="40" fill="#DBEAFE"/>
  <circle cx="450" cy="250" r="30" fill="#3B82F6"/>
  <path d="M420 250 L480 250" stroke="#1E40AF" stroke-width="2"/>
  <path d="M450 220 L450 280" stroke="#1E40AF" stroke-width="2"/>
  <path d="M430 230 C450 210, 450 210, 470 230" stroke="#1E40AF" stroke-width="2" fill="none"/>
  <path d="M430 270 C450 290, 450 290, 470 270" stroke="#1E40AF" stroke-width="2" fill="none"/>
  
  <text x="300" y="350" font-family="Arial, sans-serif" font-size="24" text-anchor="middle" font-weight="bold" fill="#1E40AF">Comprehensive Business Services</text>
</svg>